<svg width="16" height="16" viewBox="0 0 16 16" fill="none" xmlns="http://www.w3.org/2000/svg">
<path opacity="0.4" d="M13.0175 3.64921C11.7241 2.35587 10.4575 2.32254 9.13079 3.64921L8.32412 4.45587C8.25746 4.52254 8.23079 4.62921 8.25746 4.72254C8.76412 6.48921 10.1775 7.90254 11.9441 8.40921C11.9708 8.41587 11.9975 8.42254 12.0241 8.42254C12.0975 8.42254 12.1641 8.39587 12.2175 8.34254L13.0175 7.53587C13.6775 6.88254 13.9975 6.24921 13.9975 5.60921C14.0041 4.94921 13.6841 4.30921 13.0175 3.64921Z" fill="white"/>
<path d="M10.7441 9.01588C10.5508 8.92255 10.3641 8.82922 10.1841 8.72255C10.0375 8.63588 9.89746 8.54255 9.75746 8.44255C9.64412 8.36922 9.51079 8.26255 9.38412 8.15588C9.37079 8.14922 9.32412 8.10922 9.27079 8.05588C9.05079 7.86922 8.80412 7.62922 8.58412 7.36255C8.56412 7.34922 8.53079 7.30255 8.48412 7.24255C8.41746 7.16255 8.30412 7.02922 8.20412 6.87588C8.12412 6.77588 8.03079 6.62922 7.94412 6.48255C7.83746 6.30255 7.74412 6.12255 7.65079 5.93588C7.55746 5.73588 7.48412 5.54255 7.41746 5.36255L3.23079 9.54922C3.14412 9.63588 3.06412 9.80255 3.04412 9.91588L2.68412 12.4692C2.61746 12.9225 2.74412 13.3492 3.02412 13.6359C3.26412 13.8692 3.59746 13.9959 3.95746 13.9959C4.03746 13.9959 4.11746 13.9892 4.19746 13.9759L6.75746 13.6159C6.87746 13.5959 7.04412 13.5159 7.12412 13.4292L11.3108 9.24255C11.1241 9.17588 10.9441 9.10255 10.7441 9.01588Z" fill="white"/>
</svg>
