<svg width="16" height="16" viewBox="0 0 16 16" fill="none" xmlns="http://www.w3.org/2000/svg">
<path d="M14.0467 3.48667C12.9733 3.38 11.9 3.3 10.82 3.24V3.23333L10.6733 2.36667C10.5733 1.75333 10.4267 0.833332 8.86667 0.833332H7.12C5.56667 0.833332 5.42 1.71333 5.31334 2.36L5.17334 3.21333C4.55334 3.25333 3.93334 3.29333 3.31334 3.35333L1.95334 3.48667C1.67334 3.51333 1.47334 3.76 1.5 4.03333C1.52667 4.30667 1.76667 4.50667 2.04667 4.48L3.40667 4.34667C6.9 4 10.42 4.13333 13.9533 4.48667C13.9733 4.48667 13.9867 4.48667 14.0067 4.48667C14.26 4.48667 14.48 4.29333 14.5067 4.03333C14.5267 3.76 14.3267 3.51333 14.0467 3.48667Z" fill="white"/>
<path opacity="0.3991" d="M12.82 5.42667C12.66 5.26 12.44 5.16667 12.2133 5.16667H3.78666C3.56 5.16667 3.33333 5.26 3.18 5.42667C3.02667 5.59333 2.94 5.82 2.95333 6.05333L3.36667 12.8933C3.44 13.9067 3.53333 15.1733 5.86 15.1733H10.14C12.4667 15.1733 12.56 13.9133 12.6333 12.8933L13.0467 6.06C13.06 5.82 12.9733 5.59333 12.82 5.42667Z" fill="white"/>
<path fill-rule="evenodd" clip-rule="evenodd" d="M6.38667 11.3333C6.38667 11.0572 6.61053 10.8333 6.88667 10.8333H9.10667C9.38282 10.8333 9.60667 11.0572 9.60667 11.3333C9.60667 11.6095 9.38282 11.8333 9.10667 11.8333H6.88667C6.61053 11.8333 6.38667 11.6095 6.38667 11.3333Z" fill="white"/>
<path fill-rule="evenodd" clip-rule="evenodd" d="M5.83334 8.66667C5.83334 8.39053 6.05719 8.16667 6.33334 8.16667H9.66667C9.94281 8.16667 10.1667 8.39053 10.1667 8.66667C10.1667 8.94281 9.94281 9.16667 9.66667 9.16667H6.33334C6.05719 9.16667 5.83334 8.94281 5.83334 8.66667Z" fill="white"/>
</svg>
